<?xml version="1.0" encoding="UTF-8"?>
<svg viewBox="0 0 800 600" xmlns="http://www.w3.org/2000/svg" preserveAspectRatio="xMidYMid slice">
  <defs>
    <linearGradient id="bg" x1="0" y1="0" x2="1" y2="1">
      <stop offset="0%" stop-color="hsl(215,35%,18%)"/>
      <stop offset="50%" stop-color="hsl(215,35%,14%)"/>
      <stop offset="100%" stop-color="hsl(215,35%,10%)"/>
    </linearGradient>
    <linearGradient id="overlay" x1="0" y1="0" x2="0" y2="1">
      <stop offset="0%" stop-color="transparent"/>
      <stop offset="60%" stop-color="hsl(215,35%,8%)"/>
      <stop offset="100%" stop-color="hsl(215,35%,6%)"/>
    </linearGradient>
    <linearGradient id="goldGrad" x1="0" y1="0" x2="1" y2="1">
      <stop offset="0%" stop-color="hsl(43,90%,55%)"/>
      <stop offset="100%" stop-color="hsl(43,74%,40%)"/>
    </linearGradient>
  </defs>
  <rect width="800" height="600" fill="url(#bg)"/>
  <rect x="0" y="0" width="800" height="600" fill="url(#overlay)"/>
  <rect x="80" y="100" width="340" height="400" rx="12" fill="hsl(215,35%,12%)" opacity="0.6"/>
  <rect x="460" y="120" width="280" height="380" rx="12" fill="hsl(215,35%,10%)" opacity="0.5"/>
  <circle cx="250" cy="200" r="50" fill="hsl(43,74%,40%)" opacity="0.1"/>
  <path d="M220 190 L250 220 L280 190" stroke="url(#goldGrad)" stroke-width="2.5" fill="none" stroke-linecap="round"/>
  <rect x="120" y="280" width="260" height="12" rx="6" fill="hsl(215,35%,22%)" opacity="0.5"/>
  <rect x="120" y="310" width="220" height="12" rx="6" fill="hsl(215,35%,20%)" opacity="0.4"/>
  <rect x="120" y="340" width="240" height="12" rx="6" fill="hsl(215,35%,21%)" opacity="0.5"/>
  <rect x="480" y="180" width="240" height="140" rx="8" fill="hsl(215,35%,16%)" opacity="0.4"/>
  <rect x="480" y="340" width="240" height="120" rx="8" fill="hsl(215,35%,15%)" opacity="0.3"/>
  <circle cx="600" cy="240" r="20" fill="hsl(43,74%,40%)" opacity="0.08"/>
  <circle cx="300" cy="420" r="30" fill="hsl(43,74%,40%)" opacity="0.06"/>
</svg>
