<?xml version="1.0" encoding="UTF-8"?>
<svg viewBox="0 0 800 600" xmlns="http://www.w3.org/2000/svg" preserveAspectRatio="xMidYMid slice">
  <defs>
    <linearGradient id="bg" x1="0" y1="0" x2="1" y2="1">
      <stop offset="0%" stop-color="hsl(215,35%,18%)"/>
      <stop offset="50%" stop-color="hsl(215,35%,14%)"/>
      <stop offset="100%" stop-color="hsl(215,35%,10%)"/>
    </linearGradient>
    <linearGradient id="overlay" x1="0" y1="0" x2="0" y2="1">
      <stop offset="0%" stop-color="transparent"/>
      <stop offset="60%" stop-color="hsl(215,35%,8%)"/>
      <stop offset="100%" stop-color="hsl(215,35%,6%)"/>
    </linearGradient>
    <linearGradient id="goldGrad" x1="0" y1="0" x2="1" y2="1">
      <stop offset="0%" stop-color="hsl(43,90%,55%)"/>
      <stop offset="100%" stop-color="hsl(43,74%,40%)"/>
    </linearGradient>
  </defs>
  <rect width="800" height="600" fill="url(#bg)"/>
  <rect x="0" y="0" width="800" height="600" fill="url(#overlay)"/>
  <rect x="100" y="120" width="300" height="360" rx="8" fill="hsl(215,35%,12%)" opacity="0.6"/>
  <rect x="440" y="140" width="280" height="340" rx="8" fill="hsl(215,35%,10%)" opacity="0.5"/>
  <rect x="120" y="160" width="140" height="120" fill="hsl(215,35%,16%)" opacity="0.4"/>
  <rect x="280" y="180" width="100" height="100" fill="hsl(215,35%,14%)" opacity="0.3"/>
  <circle cx="240" cy="220" r="30" fill="hsl(43,74%,40%)" opacity="0.12"/>
  <path d="M220 210 L240 230 L260 210" stroke="url(#goldGrad)" stroke-width="2.5" fill="none" stroke-linecap="round"/>
  <rect x="460" y="200" width="240" height="10" rx="5" fill="hsl(215,35%,25%)" opacity="0.5"/>
  <rect x="460" y="230" width="200" height="10" rx="5" fill="hsl(215,35%,22%)" opacity="0.4"/>
  <rect x="460" y="260" width="220" height="10" rx="5" fill="hsl(215,35%,23%)" opacity="0.5"/>
  <circle cx="680" cy="320" r="25" fill="hsl(43,74%,40%)" opacity="0.08"/>
  <rect x="160" y="450" width="100" height="30" rx="15" fill="hsl(43,74%,40%)" opacity="0.15"/>
  <circle cx="500" cy="400" r="20" fill="hsl(43,74%,40%)" opacity="0.1"/>
</svg>
